<?xml version="1.0" encoding="UTF-8" standalone="no"?>
<svg width="96px" height="35px" viewBox="0 0 96 35" version="1.1" xmlns="http://www.w3.org/2000/svg" xmlns:xlink="http://www.w3.org/1999/xlink" xmlns:sketch="http://www.bohemiancoding.com/sketch/ns">
    <!-- Generator: Sketch 3.5.2 (25235) - http://www.bohemiancoding.com/sketch -->
    <title>WaveLogo_v2</title>
    <desc>Created with Sketch.</desc>
    <defs/>
    <g id="Page-1" stroke="none" stroke-width="1" fill="none" fill-rule="evenodd" sketch:type="MSPage">
        <g id="WaveLogo_v2" sketch:type="MSLayerGroup" fill="#FFFFFF">
            <path d="M46.232,28 L42.808,28 L39.736,5.6 L42.168,5.6 L44.792,24.672 L47.288,5.632 L49.752,5.632 L52.216,24.704 L54.744,5.6 L56.92,5.6 L53.88,28 L50.584,28 L48.44,12.8 L46.232,28 L46.232,28 Z M61.464,23.488 L60.6,28 L58.296,28 L62.584,5.6 L66.2,5.6 L70.488,28 L67.992,28 L67.128,23.488 L61.464,23.488 L61.464,23.488 Z M61.784,21.344 L66.776,21.344 L64.248,8.416 L61.784,21.344 L61.784,21.344 Z M74.328,5.6 L77.976,25.088 L81.592,5.6 L83.896,5.6 L79.704,28 L76.024,28 L71.8,5.6 L74.328,5.6 L74.328,5.6 Z M93.784,15.52 L93.784,17.76 L88.312,17.76 L88.312,25.729 L95.032,25.729 L95.032,28 L85.816,28 L85.816,5.6 L95.032,5.6 L95.032,7.872 L88.312,7.872 L88.312,15.52 L93.784,15.52 L93.784,15.52 Z" id="WAVE" sketch:type="MSShapeGroup"/>
            <path d="M16.803,18.812 C16.692,18.812 16.532,18.814 16.414,18.818 C13.662,18.906 10.998,19.4 8.494,20.59 C7.032,21.284 5.709,22.177 4.704,23.474 C2.998,25.677 3.074,28.247 4.898,30.363 C6.172,31.839 7.804,32.782 9.593,33.476 C11.798,34.331 14.097,34.706 16.454,34.777 C16.565,34.781 16.657,34.777 16.77,34.782 L16.768,34.982 C16.522,34.982 16.278,34.984 16.033,34.976 C13.115,34.877 10.275,34.378 7.563,33.267 C5.512,32.426 3.64,31.304 2.139,29.644 C0.757,28.113 -0.085,26.351 0.008,24.243 C0.09,22.378 0.898,20.81 2.132,19.453 C3.824,17.59 5.952,16.401 8.284,15.544 C10.88,14.59 13.573,14.165 16.33,14.108 C16.477,14.105 16.65,14.108 16.798,14.105 L16.803,18.812 L16.803,18.812 Z" id="Shape" sketch:type="MSShapeGroup"/>
            <path d="M12.119,9.393 C12.119,4.274 16.294,0 21.466,0 L21.466,4.671 C20.303,4.671 19.105,5.126 18.192,6.044 C17.43,6.812 16.797,7.952 16.797,9.391 L12.119,9.393 L12.119,9.393 Z" id="Shape" sketch:type="MSShapeGroup"/>
            <rect id="Rectangle-path" sketch:type="MSShapeGroup" x="16.797" y="9.391" width="4.653" height="4.714"/>
        </g>
    </g>
</svg>